<svg width="106" height="22" viewBox="0 0 106 22" fill="none" xmlns="http://www.w3.org/2000/svg">
<path d="M97.9117 18.3632C96.9664 18.3632 96.0548 18.1944 95.1769 17.8568C94.3126 17.5191 93.5428 17.0329 92.8675 16.3982C92.1923 15.7634 91.6588 14.9937 91.2672 14.0888C90.8755 13.184 90.6797 12.1643 90.6797 11.0299C90.6797 9.89543 90.8755 8.87579 91.2672 7.97094C91.6588 7.06609 92.1923 6.29629 92.8675 5.66154C93.5428 5.0268 94.3126 4.54061 95.1769 4.20298C96.0548 3.86535 96.9664 3.69654 97.9117 3.69654C98.8706 3.69654 99.7822 3.86535 100.647 4.20298C101.524 4.54061 102.301 5.0268 102.976 5.66154C103.651 6.29629 104.185 7.06609 104.577 7.97094C104.968 8.87579 105.164 9.89543 105.164 11.0299C105.164 12.1643 104.968 13.184 104.577 14.0888C104.185 14.9937 103.651 15.7634 102.976 16.3982C102.301 17.0329 101.524 17.5191 100.647 17.8568C99.7822 18.1944 98.8706 18.3632 97.9117 18.3632ZM97.9117 16.0133C98.668 16.0133 99.3973 15.8377 100.1 15.4866C100.802 15.122 101.376 14.5682 101.821 13.8254C102.267 13.0827 102.49 12.1508 102.49 11.0299C102.49 9.89543 102.267 8.95682 101.821 8.21403C101.376 7.47124 100.802 6.92428 100.1 6.57315C99.3973 6.20851 98.668 6.02619 97.9117 6.02619C97.1689 6.02619 96.4464 6.20851 95.7441 6.57315C95.0419 6.92428 94.4679 7.47124 94.0222 8.21403C93.5766 8.95682 93.3537 9.89543 93.3537 11.0299C93.3537 12.1508 93.5766 13.0827 94.0222 13.8254C94.4679 14.5682 95.0419 15.122 95.7441 15.4866C96.4464 15.8377 97.1689 16.0133 97.9117 16.0133Z" fill="white"/>
<path d="M81.5903 18.1201V3.93963H84.1833V15.912H90.3012V18.1201H81.5903Z" fill="white"/>
<path d="M70.749 18.1201V3.93963H73.342V15.912H79.4599V18.1201H70.749Z" fill="white"/>
<path d="M61.3722 18.3632C60.4268 18.3632 59.5152 18.1944 58.6374 17.8568C57.773 17.5191 57.0032 17.0329 56.328 16.3982C55.6527 15.7634 55.1193 14.9937 54.7276 14.0888C54.336 13.184 54.1401 12.1643 54.1401 11.0299C54.1401 9.89543 54.336 8.87579 54.7276 7.97094C55.1193 7.06609 55.6527 6.29629 56.328 5.66154C57.0032 5.0268 57.773 4.54061 58.6374 4.20298C59.5152 3.86535 60.4268 3.69654 61.3722 3.69654C62.331 3.69654 63.2427 3.86535 64.107 4.20298C64.9848 4.54061 65.7614 5.0268 66.4366 5.66154C67.1119 6.29629 67.6454 7.06609 68.037 7.97094C68.4287 8.87579 68.6245 9.89543 68.6245 11.0299C68.6245 12.1643 68.4287 13.184 68.037 14.0888C67.6454 14.9937 67.1119 15.7634 66.4366 16.3982C65.7614 17.0329 64.9848 17.5191 64.107 17.8568C63.2427 18.1944 62.331 18.3632 61.3722 18.3632ZM61.3722 16.0133C62.1285 16.0133 62.8578 15.8377 63.56 15.4866C64.2623 15.122 64.8363 14.5682 65.2819 13.8254C65.7276 13.0827 65.9505 12.1508 65.9505 11.0299C65.9505 9.89543 65.7276 8.95682 65.2819 8.21403C64.8363 7.47124 64.2623 6.92428 63.56 6.57315C62.8578 6.20851 62.1285 6.02619 61.3722 6.02619C60.6294 6.02619 59.9069 6.20851 59.2046 6.57315C58.5023 6.92428 57.9284 7.47124 57.4827 8.21403C57.037 8.95682 56.8142 9.89543 56.8142 11.0299C56.8142 12.1508 57.037 13.0827 57.4827 13.8254C57.9284 14.5682 58.5023 15.122 59.2046 15.4866C59.9069 15.8377 60.6294 16.0133 61.3722 16.0133Z" fill="white"/>
<path d="M42.4795 18.1201V3.93963H47.7263C48.7122 3.93963 49.5765 4.10844 50.3193 4.44607C51.0756 4.7702 51.6698 5.24964 52.102 5.88438C52.5341 6.51913 52.7502 7.28892 52.7502 8.19377C52.7502 9.09862 52.5341 9.87517 52.102 10.5234C51.6698 11.1582 51.0756 11.6444 50.3193 11.982C49.5765 12.3061 48.7122 12.4682 47.7263 12.4682H45.0725V18.1201H42.4795ZM45.0725 10.2601H47.6655C48.5703 10.2601 49.2051 10.071 49.5697 9.69285C49.9344 9.3012 50.1167 8.80151 50.1167 8.19377C50.1167 7.59954 49.9344 7.11335 49.5697 6.73521C49.2051 6.34356 48.5703 6.14773 47.6655 6.14773H45.0725V10.2601Z" fill="white"/>
<path d="M27.502 18.1201L32.688 3.93963H35.6051L40.7911 18.1201H38.036L36.9218 14.8991H31.3509L30.2165 18.1201H27.502ZM32.0802 12.8126H36.1926L34.1263 6.91753L32.0802 12.8126Z" fill="white"/>
<path d="M4.10946 13.1443C4.94402 11.9967 21.6351 0 21.6351 0L10.3686 15.6479C8.90814 17.317 5.98717 20.6553 3.79647 18.4645C2.0439 16.712 3.27491 14.2918 4.10946 13.1443Z" fill="#FF6746"/>
<path d="M10.1883 18.7418C10.739 18.2455 20.5689 13.9184 20.5689 13.9184L13.117 20.6986C12.1899 21.3939 10.3357 22.7844 9.45281 21.4275C8.74651 20.3421 9.63756 19.2381 10.1883 18.7418Z" fill="#FF6746"/>
<path d="M0.243153 10.264C0.508361 9.57167 7.30022 1.25183 7.30022 1.25183L3.74119 10.677C3.23102 11.7175 2.21069 13.7985 0.807848 12.9908C-0.314424 12.3446 -0.022054 10.9563 0.243153 10.264Z" fill="#FF6746"/>
<path d="M13.6267 13.3623C13.9867 12.9309 20.8987 8.63189 20.8987 8.63189L16.0336 14.5169C15.4124 15.1378 14.1701 16.3796 13.3624 15.4561C12.7162 14.7173 13.2666 13.7936 13.6267 13.3623Z" fill="#FF6746"/>
<path d="M6.43168 6.39748C6.72269 5.91682 12.9084 0.625896 12.9084 0.625896L8.98506 7.17648C8.46448 7.88384 7.42332 9.29857 6.48576 8.50726C5.73572 7.87421 6.14068 6.87813 6.43168 6.39748Z" fill="#FF6746"/>
</svg>
