<svg width="100" height="100" viewBox="0 0 100 100" fill="none" xmlns="http://www.w3.org/2000/svg">
<g clipPath="url(#clip0_771_781)">
<path d="M85 0H15C6.71573 0 0 6.71573 0 15V85C0 93.2843 6.71573 100 15 100H85C93.2843 100 100 93.2843 100 85V15C100 6.71573 93.2843 0 85 0Z" fill="#16161B"/>
<path d="M34.4422 55.2812C36.3389 52.6732 74.2732 25.4079 74.2732 25.4079L48.6676 60.9713C45.3483 64.7648 38.7097 72.3516 33.7309 67.3727C29.7478 63.3896 32.5455 57.8892 34.4422 55.2812Z" fill="#FF6746"/>
<path d="M48.2578 68.0028C49.5094 66.8748 71.85 57.0407 71.85 57.0407L54.914 72.4502C52.8069 74.0303 48.5927 77.1905 46.5862 74.1068C44.981 71.6399 47.0061 69.1308 48.2578 68.0028Z" fill="#FF6746"/>
<path d="M25.6552 48.7351C26.2579 47.1617 41.6939 28.2529 41.6939 28.2529L33.6052 49.6739C32.4458 52.0386 30.1268 56.7682 26.9386 54.9324C24.3879 53.4637 25.0524 50.3085 25.6552 48.7351Z" fill="#FF6746"/>
<path d="M56.0722 55.7766C56.8905 54.7963 72.5995 45.0258 72.5995 45.0258L61.5425 58.4009C60.1308 59.812 57.3073 62.6343 55.4716 60.5354C54.0031 58.8564 55.2539 56.757 56.0722 55.7766Z" fill="#FF6746"/>
<path d="M39.72 39.9476C40.3814 38.8552 54.4398 26.8304 54.4398 26.8304L45.5231 41.718C44.34 43.3257 41.9737 46.541 39.8429 44.7426C38.1383 43.3038 39.0586 41.04 39.72 39.9476Z" fill="#FF6746"/>
</g>
<defs>
<clipPath id="clip0_771_781">
<rect width="100" height="100" fill="white"/>
</clipPath>
</defs>
</svg>
