<svg width="287" height="63" viewBox="0 0 287 63" fill="none" xmlns="http://www.w3.org/2000/svg">
<g filter="url(#filter0_b_3729_607)">
<path d="M23.5 12.96C23.5 5.80239 29.3024 0 36.46 0H250.54C257.698 0 263.5 5.80239 263.5 12.96V40H23.5V12.96Z" fill="url(#paint0_linear_3729_607)"/>
<path d="M24.04 12.96C24.04 6.10062 29.6006 0.54 36.46 0.54H250.54C257.399 0.54 262.96 6.10062 262.96 12.96V39.46H24.04V12.96Z" stroke="url(#paint1_linear_3729_607)" strokeWidth="1.08"/>
<g clipPath="url(#clip0_3729_607)">
<g clipPath="url(#clip1_3729_607)">
<path d="M53.6166 27.8585L50.9423 30.6526C50.8842 30.7133 50.8138 30.7617 50.7356 30.7948C50.6575 30.8278 50.5732 30.8449 50.488 30.8448H37.8105C37.75 30.8448 37.6908 30.8276 37.6402 30.7953C37.5896 30.763 37.5498 30.717 37.5257 30.6629C37.5016 30.6089 37.4942 30.5492 37.5045 30.4911C37.5148 30.433 37.5422 30.3791 37.5835 30.336L40.2598 27.542C40.3178 27.4814 40.3879 27.4331 40.4658 27.4001C40.5437 27.367 40.6278 27.3499 40.7127 27.3497H53.3895C53.45 27.3497 53.5092 27.3669 53.5598 27.3993C53.6103 27.4316 53.6501 27.4776 53.6743 27.5316C53.6984 27.5857 53.7058 27.6454 53.6955 27.7035C53.6852 27.7616 53.6578 27.8154 53.6166 27.8585ZM50.9423 22.2321C50.8842 22.1714 50.8138 22.123 50.7356 22.0899C50.6575 22.0569 50.5732 22.0398 50.488 22.0399H37.8105C37.75 22.0399 37.6908 22.0571 37.6402 22.0894C37.5896 22.1217 37.5498 22.1677 37.5257 22.2217C37.5016 22.2758 37.4942 22.3355 37.5045 22.3936C37.5148 22.4517 37.5422 22.5056 37.5835 22.5487L40.2598 25.3427C40.3178 25.4033 40.3879 25.4515 40.4658 25.4846C40.5437 25.5177 40.6278 25.5348 40.7127 25.535H53.3895C53.45 25.535 53.5092 25.5177 53.5598 25.4854C53.6103 25.4531 53.6501 25.4071 53.6743 25.3531C53.6984 25.299 53.7058 25.2393 53.6955 25.1812C53.6852 25.1231 53.6578 25.0692 53.6166 25.0261L50.9423 22.2321ZM37.8105 20.2251H50.488C50.5732 20.2251 50.6575 20.2081 50.7356 20.175C50.8138 20.1419 50.8842 20.0935 50.9423 20.0329L53.6166 17.2388C53.6578 17.1957 53.6852 17.1418 53.6955 17.0837C53.7058 17.0257 53.6984 16.9659 53.6743 16.9119C53.6501 16.8578 53.6103 16.8118 53.5598 16.7795C53.5092 16.7472 53.45 16.73 53.3895 16.73H40.7127C40.6278 16.7301 40.5437 16.7473 40.4658 16.7803C40.3879 16.8134 40.3178 16.8617 40.2598 16.9222L37.5842 19.7163C37.5429 19.7593 37.5155 19.8132 37.5052 19.8712C37.4949 19.9292 37.5023 19.9889 37.5263 20.0429C37.5503 20.0969 37.59 20.1429 37.6405 20.1753C37.691 20.2076 37.75 20.2249 37.8105 20.2251Z" fill="url(#paint2_linear_3729_607)"/>
</g>
</g>
<path d="M236.517 23.9667L239.267 26.7167L245.683 20.3" stroke="#5FFF82" strokeWidth="1.1" strokeLinecap="round" strokeLinejoin="round"/>
</g>
<g filter="url(#filter1_b_3729_607)">
<path d="M10.5 35.4C10.5 27.4471 16.9471 21 24.9 21H262.1C270.053 21 276.5 27.4471 276.5 35.4V48.6021C276.5 56.555 270.053 63.0021 262.1 63.0021H24.9C16.9471 63.0021 10.5 56.555 10.5 48.6021V35.4Z" fill="url(#paint3_linear_3729_607)"/>
<path d="M11.1 35.4C11.1 27.7785 17.2785 21.6 24.9 21.6H262.1C269.722 21.6 275.9 27.7785 275.9 35.4V48.6021C275.9 56.2236 269.722 62.4021 262.1 62.4021H24.9C17.2785 62.4021 11.1 56.2236 11.1 48.6021V35.4Z" stroke="url(#paint4_linear_3729_607)" strokeWidth="1.2"/>
<path d="M42.2306 44.1785C41.0284 49.0005 36.1446 51.9351 31.322 50.7326C26.5014 49.5304 23.5668 44.6463 24.7696 39.8246C25.9712 35.002 30.8551 32.0672 35.6762 33.2694C40.4985 34.4715 43.4328 39.3562 42.2306 44.1785Z" fill="#F7931A"/>
<path d="M37.4685 40.7191C37.6477 39.5214 36.7357 38.8775 35.4888 38.448L35.8933 36.8256L34.9057 36.5795L34.512 38.1591C34.2523 38.0944 33.9857 38.0334 33.7207 37.9729L34.1173 36.3828L33.1303 36.1367L32.7255 37.7586C32.5106 37.7096 32.2997 37.6613 32.0949 37.6103L32.096 37.6053L30.7341 37.2652L30.4714 38.32C30.4714 38.32 31.2041 38.4879 31.1886 38.4983C31.5886 38.5982 31.6609 38.8629 31.6488 39.0727L31.1881 40.921C31.2156 40.928 31.2514 40.9382 31.2907 40.9539C31.2578 40.9458 31.2227 40.9368 31.1864 40.928L30.5406 43.5172C30.4916 43.6387 30.3676 43.821 30.088 43.7518C30.0978 43.7662 29.3702 43.5726 29.3702 43.5726L28.8799 44.7031L30.1651 45.0235C30.4041 45.0834 30.6384 45.1461 30.8691 45.2052L30.4604 46.8462L31.4468 47.0923L31.8516 45.4687C32.1211 45.5419 32.3827 45.6094 32.6386 45.673L32.2353 47.2889L33.2228 47.535L33.6315 45.8971C35.3156 46.2158 36.5819 46.0873 37.1149 44.5641C37.5444 43.3378 37.0935 42.6303 36.2075 42.1691C36.8528 42.0203 37.3388 41.5958 37.4685 40.7191ZM35.2121 43.8832C34.9069 45.1095 32.842 44.4466 32.1725 44.2803L32.7149 42.1063C33.3843 42.2734 35.531 42.6042 35.2121 43.8832ZM35.5175 40.7013C35.2391 41.8169 33.5204 41.2501 32.9629 41.1112L33.4546 39.1394C34.0121 39.2783 35.8075 39.5377 35.5175 40.7013Z" fill="white"/>
<path d="M248.7 42.6006L251.7 45.6006L258.7 38.6006" stroke="#5FFF82" strokeWidth="1.2" strokeLinecap="round" strokeLinejoin="round"/>
</g>
<defs>
<filter id="filter0_b_3729_607" x="-2.42" y="-25.92" width="291.84" height="91.84" filterUnits="userSpaceOnUse" color-interpolation-filters="sRGB">
<feFlood flood-opacity="0" result="BackgroundImageFix"/>
<feGaussianBlur in="BackgroundImageFix" stdDeviation="12.96"/>
<feComposite in2="SourceAlpha" operator="in" result="effect1_backgroundBlur_3729_607"/>
<feBlend mode="normal" in="SourceGraphic" in2="effect1_backgroundBlur_3729_607" result="shape"/>
</filter>
<filter id="filter1_b_3729_607" x="-18.3" y="-7.8" width="323.6" height="99.6022" filterUnits="userSpaceOnUse" color-interpolation-filters="sRGB">
<feFlood flood-opacity="0" result="BackgroundImageFix"/>
<feGaussianBlur in="BackgroundImageFix" stdDeviation="14.4"/>
<feComposite in2="SourceAlpha" operator="in" result="effect1_backgroundBlur_3729_607"/>
<feBlend mode="normal" in="SourceGraphic" in2="effect1_backgroundBlur_3729_607" result="shape"/>
</filter>
<linearGradient id="paint0_linear_3729_607" x1="143.5" y1="0" x2="143.5" y2="35.6338" gradientUnits="userSpaceOnUse">
<stop stop-color="#2C2C36"/>
<stop offset="0.907213" stop-color="#2C2C36" stop-opacity="0"/>
</linearGradient>
<linearGradient id="paint1_linear_3729_607" x1="143.5" y1="29.7778" x2="143.5" y2="2.0334e-07" gradientUnits="userSpaceOnUse">
<stop stop-color="#8B8A9E" stop-opacity="0"/>
<stop offset="1" stop-color="#8B8A9E" stop-opacity="0.25"/>
</linearGradient>
<linearGradient id="paint2_linear_3729_607" x1="38.8675" y1="31.1812" x2="51.7742" y2="16.2462" gradientUnits="userSpaceOnUse">
<stop offset="0.08" stop-color="#9945FF"/>
<stop offset="0.3" stop-color="#8752F3"/>
<stop offset="0.5" stop-color="#5497D5"/>
<stop offset="0.6" stop-color="#43B4CA"/>
<stop offset="0.72" stop-color="#28E0B9"/>
<stop offset="1" stop-color="#19FB9B"/>
</linearGradient>
<linearGradient id="paint3_linear_3729_607" x1="143.5" y1="21" x2="143.5" y2="58.4174" gradientUnits="userSpaceOnUse">
<stop stop-color="#2C2C36"/>
<stop offset="1" stop-color="#2C2C36" stop-opacity="0.2"/>
</linearGradient>
<linearGradient id="paint4_linear_3729_607" x1="143.5" y1="52.2682" x2="143.5" y2="21" gradientUnits="userSpaceOnUse">
<stop offset="0.257213" stop-color="#8B8A9E" stop-opacity="0"/>
<stop offset="1" stop-color="#8B8A9E" stop-opacity="0.25"/>
</linearGradient>
<clipPath id="clip0_3729_607">
<rect width="16" height="16" fill="white" transform="translate(37.5 16)"/>
</clipPath>
<clipPath id="clip1_3729_607">
<rect width="16.2" height="14.1149" fill="white" transform="translate(37.5 16.73)"/>
</clipPath>
</defs>
</svg>
